<?xml version="1.0" encoding="UTF-8"?>
<svg id="Layer_1" xmlns="http://www.w3.org/2000/svg" xmlns:xlink="http://www.w3.org/1999/xlink" version="1.1" viewBox="0 0 1366 786">
  <!-- Generator: Adobe Illustrator 29.5.1, SVG Export Plug-In . SVG Version: 2.1.0 Build 141)  -->
  <defs>
    <style>
      .st0 {
        fill: url(#linear-gradient2);
      }

      .st1 {
        fill: url(#linear-gradient1);
      }

      .st2 {
        fill: url(#linear-gradient9);
      }

      .st3 {
        fill: url(#linear-gradient3);
      }

      .st4 {
        fill: url(#linear-gradient6);
      }

      .st5 {
        fill: url(#linear-gradient8);
      }

      .st6 {
        fill: url(#linear-gradient7);
      }

      .st7 {
        fill: url(#linear-gradient5);
      }

      .st8 {
        fill: url(#linear-gradient4);
      }

      .st9 {
        fill: url(#radial-gradient);
      }

      .st9, .st10, .st11 {
        opacity: .71;
      }

      .st9, .st10, .st11, .st12, .st13, .st14, .st15, .st16, .st17, .st18, .st19, .st20, .st21, .st22, .st23, .st24, .st25 {
        isolation: isolate;
      }

      .st26 {
        fill: url(#radial-gradient10);
      }

      .st27 {
        fill: url(#radial-gradient11);
      }

      .st28 {
        stroke-width: 2.55px;
      }

      .st28, .st29, .st30, .st31, .st32, .st33, .st34, .st35, .st36, .st37, .st38, .st12, .st13, .st14, .st15, .st16, .st17, .st18, .st19, .st20, .st21, .st22, .st23, .st24, .st25, .st39, .st40, .st41, .st42 {
        stroke: #fff;
        stroke-miterlimit: 10;
      }

      .st28, .st29, .st30, .st31, .st32, .st33, .st34, .st35, .st36, .st37, .st38, .st39, .st40, .st41, .st42 {
        fill: none;
      }

      .st29 {
        stroke-width: 2.72px;
      }

      .st43 {
        fill: url(#linear-gradient);
      }

      .st30, .st22 {
        stroke-width: .83px;
      }

      .st31 {
        stroke-width: 1.1px;
      }

      .st10 {
        fill: url(#radial-gradient9);
      }

      .st11 {
        fill: url(#radial-gradient8);
      }

      .st32 {
        stroke-width: 1.71px;
      }

      .st33 {
        stroke-width: 1.65px;
      }

      .st34 {
        stroke-width: 1.66px;
      }

      .st35 {
        stroke-width: .98px;
      }

      .st36 {
        stroke-width: 1.5px;
      }

      .st37 {
        stroke-width: 1.8px;
      }

      .st38 {
        stroke-width: 1.43px;
      }

      .st44 {
        opacity: .8;
      }

      .st45 {
        opacity: .78;
      }

      .st46 {
        opacity: .73;
      }

      .st47 {
        opacity: .7;
      }

      .st48, .st12, .st13, .st14, .st15, .st16, .st17, .st18, .st19, .st20, .st21, .st22, .st23, .st24, .st25 {
        opacity: .41;
      }

      .st49 {
        opacity: .65;
      }

      .st50 {
        opacity: .61;
      }

      .st51 {
        opacity: .64;
      }

      .st52 {
        opacity: .6;
      }

      .st53 {
        opacity: .52;
      }

      .st54 {
        opacity: .5;
      }

      .st12 {
        stroke-width: .41px;
      }

      .st12, .st13, .st14, .st15, .st16, .st17, .st18, .st19, .st20, .st21, .st22, .st23, .st24, .st25 {
        fill: #fff;
      }

      .st13 {
        stroke-width: .72px;
      }

      .st14 {
        stroke-width: 1.14px;
      }

      .st15 {
        stroke-width: .75px;
      }

      .st16 {
        stroke-width: .93px;
      }

      .st17 {
        stroke-width: .99px;
      }

      .st18 {
        stroke-width: .91px;
      }

      .st19 {
        stroke-width: .9px;
      }

      .st20 {
        stroke-width: 1.27px;
      }

      .st21 {
        stroke-width: .55px;
      }

      .st23 {
        stroke-width: .85px;
      }

      .st24 {
        stroke-width: .49px;
      }

      .st55 {
        fill: url(#radial-gradient1);
      }

      .st56 {
        fill: url(#radial-gradient6);
      }

      .st57 {
        fill: url(#radial-gradient3);
      }

      .st58 {
        fill: url(#radial-gradient2);
      }

      .st59 {
        fill: url(#radial-gradient5);
      }

      .st60 {
        fill: url(#radial-gradient4);
      }

      .st61 {
        fill: url(#radial-gradient7);
      }

      .st25 {
        stroke-width: 1.36px;
      }

      .st39 {
        stroke-width: 1.85px;
      }

      .st40 {
        stroke-width: 1.83px;
      }

      .st41 {
        stroke-width: 1.97px;
      }

      .st42 {
        stroke-width: 2.29px;
      }
    </style>
    <linearGradient id="linear-gradient" x1="269.77" y1="-76.97" x2="335.51" y2="-157.54" gradientTransform="translate(0 126.42) scale(1 -1)" gradientUnits="userSpaceOnUse">
      <stop offset="0" stop-color="#871bc1"/>
      <stop offset=".19" stop-color="#a51ecb"/>
      <stop offset=".37" stop-color="#bb21d3"/>
      <stop offset=".48" stop-color="#c422d6"/>
      <stop offset=".53" stop-color="#cc2fd8"/>
      <stop offset=".63" stop-color="#dd48dc"/>
      <stop offset=".74" stop-color="#e85adf"/>
      <stop offset=".86" stop-color="#ef64e1"/>
      <stop offset="1" stop-color="#f268e2"/>
    </linearGradient>
    <linearGradient id="linear-gradient1" x1="335.51" y1="-176.09" x2="412.34" y2="-270.25" gradientTransform="translate(0 126.42) scale(1 -1)" gradientUnits="userSpaceOnUse">
      <stop offset=".21" stop-color="#871bc1"/>
      <stop offset=".27" stop-color="#a51ecb"/>
      <stop offset=".33" stop-color="#bb21d3"/>
      <stop offset=".37" stop-color="#c422d6"/>
      <stop offset=".43" stop-color="#cc2fd8"/>
      <stop offset=".56" stop-color="#dd48dc"/>
      <stop offset=".69" stop-color="#e85adf"/>
      <stop offset=".83" stop-color="#ef64e1"/>
      <stop offset="1" stop-color="#f268e2"/>
    </linearGradient>
    <radialGradient id="radial-gradient" cx="162.18" cy="-399.94" fx="194.24" fy="-411.49" r="44.02" gradientTransform="translate(0 126.42) scale(1 -1)" gradientUnits="userSpaceOnUse">
      <stop offset="0" stop-color="#871bc1"/>
      <stop offset=".19" stop-color="#a51ecb"/>
      <stop offset=".37" stop-color="#bb21d3"/>
      <stop offset=".48" stop-color="#c422d6"/>
      <stop offset=".53" stop-color="#cc2fd8"/>
      <stop offset=".64" stop-color="#dd48dc"/>
      <stop offset=".75" stop-color="#e85adf"/>
      <stop offset=".86" stop-color="#ef64e1"/>
      <stop offset="1" stop-color="#f268e2"/>
    </radialGradient>
    <radialGradient id="radial-gradient1" cx="397.14" cy="-433.19" fx="498.03" fy="-278.94" r="184.31" gradientTransform="translate(0 126.42) scale(1 -1)" gradientUnits="userSpaceOnUse">
      <stop offset="0" stop-color="#871bc1"/>
      <stop offset=".19" stop-color="#a51ecb"/>
      <stop offset=".37" stop-color="#bb21d3"/>
      <stop offset=".48" stop-color="#c422d6"/>
      <stop offset=".53" stop-color="#cc2fd8"/>
      <stop offset=".64" stop-color="#dd48dc"/>
      <stop offset=".75" stop-color="#e85adf"/>
      <stop offset=".86" stop-color="#ef64e1"/>
      <stop offset="1" stop-color="#f268e2"/>
    </radialGradient>
    <radialGradient id="radial-gradient2" cx="517.51" cy="-370.26" fx="577.07" fy="-279.19" r="108.83" gradientTransform="translate(0 126.42) scale(1 -1)" gradientUnits="userSpaceOnUse">
      <stop offset="0" stop-color="#871bc1"/>
      <stop offset=".19" stop-color="#a51ecb"/>
      <stop offset=".37" stop-color="#bb21d3"/>
      <stop offset=".48" stop-color="#c422d6"/>
      <stop offset=".53" stop-color="#cc2fd8"/>
      <stop offset=".64" stop-color="#dd48dc"/>
      <stop offset=".75" stop-color="#e85adf"/>
      <stop offset=".86" stop-color="#ef64e1"/>
      <stop offset="1" stop-color="#f268e2"/>
    </radialGradient>
    <radialGradient id="radial-gradient3" cx="412.57" cy="-299.3" fx="493.99" fy="-416.15" r="142.42" gradientTransform="translate(0 126.42) scale(1 -1)" gradientUnits="userSpaceOnUse">
      <stop offset="0" stop-color="#871bc1"/>
      <stop offset=".09" stop-color="#a51ecb"/>
      <stop offset=".18" stop-color="#bb21d3"/>
      <stop offset=".24" stop-color="#c422d6"/>
      <stop offset=".31" stop-color="#cc2fd8"/>
      <stop offset=".46" stop-color="#dd48dc"/>
      <stop offset=".62" stop-color="#e85adf"/>
      <stop offset=".8" stop-color="#ef64e1"/>
      <stop offset="1" stop-color="#f268e2"/>
    </radialGradient>
    <radialGradient id="radial-gradient4" cx="95.86" cy="-21.89" fx="159.54" fy="75.49" r="116.35" gradientTransform="translate(0 126.42) scale(1 -1)" gradientUnits="userSpaceOnUse">
      <stop offset=".29" stop-color="#871bc1"/>
      <stop offset=".48" stop-color="#a51ecb"/>
      <stop offset=".66" stop-color="#bb21d3"/>
      <stop offset=".78" stop-color="#c422d6"/>
      <stop offset=".8" stop-color="#cc2fd8"/>
      <stop offset=".84" stop-color="#dd48dc"/>
      <stop offset=".89" stop-color="#e85adf"/>
      <stop offset=".94" stop-color="#ef64e1"/>
      <stop offset="1" stop-color="#f268e2"/>
    </radialGradient>
    <linearGradient id="linear-gradient2" x1="619.95" y1="-185.85" x2="685.69" y2="-266.41" gradientTransform="translate(0 126.42) scale(1 -1)" gradientUnits="userSpaceOnUse">
      <stop offset="0" stop-color="#871bc1"/>
      <stop offset=".19" stop-color="#a51ecb"/>
      <stop offset=".37" stop-color="#bb21d3"/>
      <stop offset=".48" stop-color="#c422d6"/>
      <stop offset=".53" stop-color="#cc2fd8"/>
      <stop offset=".63" stop-color="#dd48dc"/>
      <stop offset=".74" stop-color="#e85adf"/>
      <stop offset=".86" stop-color="#ef64e1"/>
      <stop offset="1" stop-color="#f268e2"/>
    </linearGradient>
    <linearGradient id="linear-gradient3" x1="103.37" y1="-205.67" x2="152.97" y2="-266.45" gradientTransform="translate(0 126.42) scale(1 -1)" gradientUnits="userSpaceOnUse">
      <stop offset="0" stop-color="#871bc1"/>
      <stop offset=".19" stop-color="#a51ecb"/>
      <stop offset=".37" stop-color="#bb21d3"/>
      <stop offset=".48" stop-color="#c422d6"/>
      <stop offset=".53" stop-color="#cc2fd8"/>
      <stop offset=".63" stop-color="#dd48dc"/>
      <stop offset=".74" stop-color="#e85adf"/>
      <stop offset=".86" stop-color="#ef64e1"/>
      <stop offset="1" stop-color="#f268e2"/>
    </linearGradient>
    <radialGradient id="radial-gradient5" cx="462.93" cy="55.09" fx="530.67" fy="158.66" r="123.75" gradientTransform="translate(0 126.42) scale(1 -1)" gradientUnits="userSpaceOnUse">
      <stop offset="0" stop-color="#871bc1"/>
      <stop offset=".19" stop-color="#a51ecb"/>
      <stop offset=".37" stop-color="#bb21d3"/>
      <stop offset=".48" stop-color="#c422d6"/>
      <stop offset=".53" stop-color="#cc2fd8"/>
      <stop offset=".64" stop-color="#dd48dc"/>
      <stop offset=".75" stop-color="#e85adf"/>
      <stop offset=".86" stop-color="#ef64e1"/>
      <stop offset="1" stop-color="#f268e2"/>
    </radialGradient>
    <radialGradient id="radial-gradient6" cx="270.19" cy="-543.82" fx="322.53" fy="-463.79" r="95.63" gradientTransform="translate(0 126.42) scale(1 -1)" gradientUnits="userSpaceOnUse">
      <stop offset="0" stop-color="#871bc1"/>
      <stop offset=".19" stop-color="#a51ecb"/>
      <stop offset=".37" stop-color="#bb21d3"/>
      <stop offset=".48" stop-color="#c422d6"/>
      <stop offset=".53" stop-color="#cc2fd8"/>
      <stop offset=".64" stop-color="#dd48dc"/>
      <stop offset=".75" stop-color="#e85adf"/>
      <stop offset=".86" stop-color="#ef64e1"/>
      <stop offset="1" stop-color="#f268e2"/>
    </radialGradient>
    <linearGradient id="linear-gradient4" x1="255.52" y1="63.12" x2="332.35" y2="-31.03" gradientTransform="translate(0 126.42) scale(1 -1)" gradientUnits="userSpaceOnUse">
      <stop offset=".05" stop-color="#871bc1"/>
      <stop offset=".22" stop-color="#a51ecb"/>
      <stop offset=".37" stop-color="#bb21d3"/>
      <stop offset=".48" stop-color="#c422d6"/>
      <stop offset=".52" stop-color="#cc2fd8"/>
      <stop offset=".63" stop-color="#dd48dc"/>
      <stop offset=".74" stop-color="#e85adf"/>
      <stop offset=".86" stop-color="#ef64e1"/>
      <stop offset="1" stop-color="#f268e2"/>
    </linearGradient>
    <radialGradient id="radial-gradient7" cx="784.62" cy="-315.21" fx="939.59" fy="-78.26" r="283.13" gradientTransform="translate(0 126.42) scale(1 -1)" gradientUnits="userSpaceOnUse">
      <stop offset="0" stop-color="#871bc1"/>
      <stop offset=".09" stop-color="#a51ecb"/>
      <stop offset=".18" stop-color="#bb21d3"/>
      <stop offset=".24" stop-color="#c422d6"/>
      <stop offset=".28" stop-color="#cc2fd8"/>
      <stop offset=".36" stop-color="#dd48dc"/>
      <stop offset=".45" stop-color="#e85adf"/>
      <stop offset=".54" stop-color="#ef64e1"/>
      <stop offset=".65" stop-color="#f268e2"/>
    </radialGradient>
    <linearGradient id="linear-gradient5" x1="569.34" y1="-165.24" x2="921.4" y2="72.97" gradientTransform="translate(0 126.42) scale(1 -1)" gradientUnits="userSpaceOnUse">
      <stop offset="0" stop-color="#871bc1"/>
      <stop offset=".09" stop-color="#931cc5"/>
      <stop offset=".26" stop-color="#b420d0"/>
      <stop offset=".33" stop-color="#c422d6"/>
      <stop offset=".47" stop-color="#d338d9"/>
      <stop offset=".78" stop-color="#f268e2"/>
    </linearGradient>
    <linearGradient id="linear-gradient6" x1="702.03" y1="-134.25" x2="1005.51" y2="-154.96" gradientTransform="translate(0 126.42) scale(1 -1)" gradientUnits="userSpaceOnUse">
      <stop offset=".31" stop-color="#871bc1"/>
      <stop offset=".41" stop-color="#931cc5"/>
      <stop offset=".6" stop-color="#b420d0"/>
      <stop offset=".67" stop-color="#c422d6"/>
      <stop offset=".77" stop-color="#d338d9"/>
      <stop offset="1" stop-color="#f268e2"/>
    </linearGradient>
    <linearGradient id="linear-gradient7" x1="1007.87" y1="14.59" x2="1324.67" y2="68.35" gradientTransform="translate(0 126.42) scale(1 -1)" gradientUnits="userSpaceOnUse">
      <stop offset="0" stop-color="#871bc1"/>
      <stop offset=".14" stop-color="#a51ecb"/>
      <stop offset=".28" stop-color="#bb21d3"/>
      <stop offset=".36" stop-color="#c422d6"/>
      <stop offset=".39" stop-color="#cc2fd8"/>
      <stop offset=".45" stop-color="#dd48dc"/>
      <stop offset=".51" stop-color="#e85adf"/>
      <stop offset=".57" stop-color="#ef64e1"/>
      <stop offset=".65" stop-color="#f268e2"/>
    </linearGradient>
    <linearGradient id="linear-gradient8" x1="906.07" y1="-425.29" x2="1219.93" y2="-649.09" gradientTransform="translate(0 126.42) scale(1 -1)" gradientUnits="userSpaceOnUse">
      <stop offset="0" stop-color="#871bc1"/>
      <stop offset=".16" stop-color="#a51ecb"/>
      <stop offset=".31" stop-color="#bb21d3"/>
      <stop offset=".41" stop-color="#c422d6"/>
      <stop offset=".43" stop-color="#cc2fd8"/>
      <stop offset=".48" stop-color="#dd48dc"/>
      <stop offset=".53" stop-color="#e85adf"/>
      <stop offset=".59" stop-color="#ef64e1"/>
      <stop offset=".65" stop-color="#f268e2"/>
    </linearGradient>
    <linearGradient id="linear-gradient9" x1="1108.22" y1="-229.34" x2="1185.05" y2="-323.49" gradientTransform="translate(0 126.42) scale(1 -1)" gradientUnits="userSpaceOnUse">
      <stop offset=".21" stop-color="#871bc1"/>
      <stop offset=".27" stop-color="#a51ecb"/>
      <stop offset=".33" stop-color="#bb21d3"/>
      <stop offset=".37" stop-color="#c422d6"/>
      <stop offset=".43" stop-color="#cc2fd8"/>
      <stop offset=".56" stop-color="#dd48dc"/>
      <stop offset=".69" stop-color="#e85adf"/>
      <stop offset=".83" stop-color="#ef64e1"/>
      <stop offset="1" stop-color="#f268e2"/>
    </linearGradient>
    <radialGradient id="radial-gradient8" cx="889.56" cy="-583.02" fx="921.62" fy="-594.57" r="44.02" gradientTransform="translate(0 126.42) scale(1 -1)" gradientUnits="userSpaceOnUse">
      <stop offset="0" stop-color="#871bc1"/>
      <stop offset=".19" stop-color="#a51ecb"/>
      <stop offset=".37" stop-color="#bb21d3"/>
      <stop offset=".48" stop-color="#c422d6"/>
      <stop offset=".53" stop-color="#cc2fd8"/>
      <stop offset=".64" stop-color="#dd48dc"/>
      <stop offset=".75" stop-color="#e85adf"/>
      <stop offset=".86" stop-color="#ef64e1"/>
      <stop offset="1" stop-color="#f268e2"/>
    </radialGradient>
    <radialGradient id="radial-gradient9" cx="1308.35" cy="55.84" fx="1340.41" fy="44.29" r="44.02" gradientTransform="translate(0 126.42) scale(1 -1)" gradientUnits="userSpaceOnUse">
      <stop offset="0" stop-color="#871bc1"/>
      <stop offset=".19" stop-color="#a51ecb"/>
      <stop offset=".37" stop-color="#bb21d3"/>
      <stop offset=".48" stop-color="#c422d6"/>
      <stop offset=".53" stop-color="#cc2fd8"/>
      <stop offset=".64" stop-color="#dd48dc"/>
      <stop offset=".75" stop-color="#e85adf"/>
      <stop offset=".86" stop-color="#ef64e1"/>
      <stop offset="1" stop-color="#f268e2"/>
    </radialGradient>
    <radialGradient id="radial-gradient10" cx="1246.09" cy="-71.71" fx="1348.92" fy="85.51" r="187.86" gradientTransform="translate(0 126.42) scale(1 -1)" gradientUnits="userSpaceOnUse">
      <stop offset=".29" stop-color="#871bc1"/>
      <stop offset=".48" stop-color="#a51ecb"/>
      <stop offset=".66" stop-color="#bb21d3"/>
      <stop offset=".78" stop-color="#c422d6"/>
      <stop offset=".8" stop-color="#cc2fd8"/>
      <stop offset=".84" stop-color="#dd48dc"/>
      <stop offset=".89" stop-color="#e85adf"/>
      <stop offset=".94" stop-color="#ef64e1"/>
      <stop offset="1" stop-color="#f268e2"/>
    </radialGradient>
    <radialGradient id="radial-gradient11" cx="1236.04" cy="-305.93" fx="1354.42" fy="-124.92" r="216.28" gradientTransform="translate(0 126.42) scale(1 -1)" gradientUnits="userSpaceOnUse">
      <stop offset="0" stop-color="#871bc1"/>
      <stop offset=".19" stop-color="#a51ecb"/>
      <stop offset=".37" stop-color="#bb21d3"/>
      <stop offset=".48" stop-color="#c422d6"/>
      <stop offset=".53" stop-color="#cc2fd8"/>
      <stop offset=".64" stop-color="#dd48dc"/>
      <stop offset=".75" stop-color="#e85adf"/>
      <stop offset=".86" stop-color="#ef64e1"/>
      <stop offset="1" stop-color="#f268e2"/>
    </radialGradient>
  </defs>
  <g id="Layer_3">
    <g class="st46">
      <path class="st43" d="M317.8,213.22c4.58-.5,8.21-3.97,12.99-4.43,27.24-2.59,29.53,43.89-.93,39.09-.27,4.25,4.54,3.97,7.3,8.51,12.23,20.06-14.83,40.39-30.67,26.13-3.5-3.15-3.52-6.45-5.27-9.51-2.65-4.63-3.7,4.35-5.98,7.27-14.27,18.29-47.6-2.54-31.47-25.43,2.17-3.08,4.8-2.89,5.81-5.46-31.6.62-26.43-46.14,1.92-40.34,3.62.74,6.29,4.35,10.14,4.17-11.64-36.69,47.8-36.69,36.16,0ZM311.25,227.31c-12.97-12.34-37.38,5.18-24.41,22.14,13.83,18.08,41.59-5.79,24.41-22.14Z"/>
    </g>
    <g>
      <path class="st33" d="M337.38,131.96c3.78-.41,6.78-3.29,10.73-3.66,22.51-2.14,24.41,36.27-.77,32.31-.22,3.51,3.75,3.28,6.03,7.03,10.11,16.58-12.26,33.38-25.35,21.6-2.89-2.61-2.91-5.33-4.36-7.86-2.19-3.82-3.06,3.6-4.94,6.01-11.8,15.12-39.34-2.1-26.01-21.02,1.79-2.54,3.96-2.39,4.8-4.51-26.12.51-21.84-38.14,1.59-33.34,2.99.61,5.2,3.6,8.38,3.45-9.62-30.32,39.5-30.33,29.88,0h.02ZM331.97,143.61c-10.72-10.2-30.89,4.28-20.17,18.3,11.43,14.94,34.37-4.79,20.17-18.3Z"/>
      <path class="st22" d="M337.38,131.96c3.78-.41,6.78-3.29,10.73-3.66,22.51-2.14,24.41,36.27-.77,32.31-.22,3.51,3.75,3.28,6.03,7.03,10.11,16.58-12.26,33.38-25.35,21.6-2.89-2.61-2.91-5.33-4.36-7.86-2.19-3.82-3.06,3.6-4.94,6.01-11.8,15.12-39.34-2.1-26.01-21.02,1.79-2.54,3.96-2.39,4.8-4.51-26.12.51-21.84-38.14,1.59-33.34,2.99.61,5.2,3.6,8.38,3.45-9.62-30.32,39.5-30.33,29.88,0h.02ZM331.97,143.61c-10.72-10.2-30.89,4.28-20.17,18.3,11.43,14.94,34.37-4.79,20.17-18.3Z"/>
    </g>
    <g class="st48">
      <path class="st1" d="M363.87,308.31c2.7-.3,4.85-2.35,7.67-2.62,16.08-1.53,17.44,25.91-.55,23.08-.16,2.51,2.68,2.35,4.31,5.02,7.22,11.85-8.76,23.85-18.11,15.43-2.07-1.86-2.08-3.81-3.11-5.61-1.57-2.73-2.19,2.57-3.53,4.3-8.43,10.8-28.11-1.5-18.58-15.02,1.28-1.82,2.83-1.71,3.43-3.22-18.66.36-15.6-27.25,1.13-23.82,2.14.44,3.71,2.57,5.99,2.46-6.87-21.66,28.22-21.67,21.35,0h0ZM360,316.63c-7.66-7.28-22.07,3.06-14.41,13.07,8.16,10.67,24.56-3.42,14.41-13.07Z"/>
    </g>
    <path class="st9" d="M174.98,507.49c3.54-.39,6.34-3.07,10.04-3.42,21.05-2.01,22.82,33.91-.72,30.2-.21,3.28,3.5,3.07,5.64,6.57,9.45,15.5-11.46,31.21-23.7,20.19-2.71-2.44-2.72-4.98-4.07-7.35-2.05-3.58-2.86,3.36-4.62,5.62-11.03,14.14-36.79-1.96-24.32-19.65,1.68-2.38,3.71-2.23,4.49-4.22-24.42.48-20.42-35.66,1.48-31.17,2.8.57,4.86,3.36,7.84,3.22-9-28.35,36.94-28.35,27.94,0h0ZM169.91,518.38c-10.02-9.53-28.88,4-18.86,17.11,10.69,13.97,32.14-4.47,18.86-17.11Z"/>
    <g>
      <path class="st30" d="M205.73,493.73c1.89-.21,3.39-1.64,5.36-1.83,11.25-1.07,12.19,18.12-.38,16.14-.11,1.75,1.87,1.64,3.01,3.51,5.05,8.28-6.12,16.68-12.66,10.79-1.45-1.3-1.45-2.66-2.18-3.92-1.1-1.91-1.53,1.8-2.47,3-5.89,7.55-19.65-1.05-12.99-10.5.9-1.27,1.98-1.19,2.4-2.25-13.05.25-10.91-19.05.79-16.66,1.49.31,2.6,1.8,4.19,1.72-4.81-15.15,19.73-15.15,14.93,0h0ZM203.03,499.55c-5.35-5.09-15.43,2.14-10.08,9.14,5.71,7.46,17.17-2.39,10.08-9.14Z"/>
      <path class="st12" d="M205.73,493.73c1.89-.21,3.39-1.64,5.36-1.83,11.25-1.07,12.19,18.12-.38,16.14-.11,1.75,1.87,1.64,3.01,3.51,5.05,8.28-6.12,16.68-12.66,10.79-1.45-1.3-1.45-2.66-2.18-3.92-1.1-1.91-1.53,1.8-2.47,3-5.89,7.55-19.65-1.05-12.99-10.5.9-1.27,1.98-1.19,2.4-2.25-13.05.25-10.91-19.05.79-16.66,1.49.31,2.6,1.8,4.19,1.72-4.81-15.15,19.73-15.15,14.93,0h0ZM203.03,499.55c-5.35-5.09-15.43,2.14-10.08,9.14,5.71,7.46,17.17-2.39,10.08-9.14Z"/>
    </g>
    <path class="st55" d="M443.06,587.08c4.97-.54,8.92-4.32,14.11-4.81,29.6-2.82,32.09,47.68-1.01,42.47-.29,4.62,4.93,4.32,7.93,9.24,13.29,21.8-16.11,43.88-33.32,28.39-3.8-3.42-3.82-7.01-5.73-10.33-2.88-5.03-4.02,4.73-6.5,7.9-15.51,19.87-51.72-2.76-34.19-27.63,2.36-3.34,5.21-3.14,6.32-5.93-34.33.67-28.71-50.13,2.08-43.83,3.93.8,6.83,4.73,11.02,4.53-12.65-39.86,51.93-39.86,39.28,0h0ZM435.94,602.39c-14.09-13.4-40.61,5.62-26.51,24.05,15.02,19.64,45.18-6.29,26.51-24.05Z"/>
    <g class="st52">
      <path class="st58" d="M544.62,512.9c2.94-.32,5.26-2.55,8.33-2.84,17.47-1.66,18.95,28.15-.6,25.07-.17,2.73,2.91,2.55,4.68,5.46,7.85,12.87-9.51,25.91-19.67,16.76-2.25-2.02-2.26-4.14-3.38-6.1-1.7-2.97-2.38,2.79-3.84,4.67-9.16,11.73-30.54-1.63-20.19-16.31,1.39-1.97,3.08-1.85,3.73-3.5-20.27.4-16.95-29.6,1.23-25.88,2.32.48,4.03,2.79,6.51,2.68-7.47-23.54,30.66-23.54,23.19,0h.01ZM540.41,521.93c-8.32-7.91-23.98,3.32-15.66,14.2,8.87,11.6,26.68-3.71,15.66-14.2Z"/>
    </g>
    <g>
      <path class="st33" d="M523.83,563.02c3.78-.41,6.78-3.29,10.73-3.66,22.51-2.14,24.41,36.27-.77,32.31-.22,3.51,3.75,3.28,6.03,7.03,10.11,16.58-12.26,33.38-25.35,21.6-2.89-2.61-2.91-5.33-4.36-7.86-2.19-3.82-3.06,3.6-4.94,6.01-11.8,15.12-39.34-2.1-26.01-21.02,1.79-2.54,3.96-2.39,4.8-4.51-26.12.51-21.84-38.14,1.59-33.34,2.99.61,5.2,3.6,8.38,3.45-9.62-30.32,39.5-30.33,29.88,0h.02ZM518.41,574.67c-10.72-10.2-30.89,4.28-20.17,18.3,11.43,14.94,34.37-4.79,20.17-18.3Z"/>
      <path class="st22" d="M523.83,563.02c3.78-.41,6.78-3.29,10.73-3.66,22.51-2.14,24.41,36.27-.77,32.31-.22,3.51,3.75,3.28,6.03,7.03,10.11,16.58-12.26,33.38-25.35,21.6-2.89-2.61-2.91-5.33-4.36-7.86-2.19-3.82-3.06,3.6-4.94,6.01-11.8,15.12-39.34-2.1-26.01-21.02,1.79-2.54,3.96-2.39,4.8-4.51-26.12.51-21.84-38.14,1.59-33.34,2.99.61,5.2,3.6,8.38,3.45-9.62-30.32,39.5-30.33,29.88,0h.02ZM518.41,574.67c-10.72-10.2-30.89,4.28-20.17,18.3,11.43,14.94,34.37-4.79,20.17-18.3Z"/>
    </g>
    <g class="st47">
      <path class="st57" d="M399.01,425.81c3.84-.42,6.89-3.34,10.9-3.72,22.87-2.18,24.79,36.84-.78,32.81-.22,3.57,3.81,3.34,6.13,7.14,10.27,16.84-12.45,33.91-25.75,21.94-2.94-2.65-2.95-5.41-4.43-7.98-2.23-3.89-3.11,3.66-5.02,6.11-11.98,15.36-39.96-2.13-26.42-21.35,1.82-2.58,4.03-2.43,4.88-4.58-26.53.52-22.19-38.74,1.61-33.87,3.04.62,5.28,3.65,8.51,3.5-9.77-30.8,40.13-30.8,30.36,0h.01ZM393.51,437.64c-10.89-10.36-31.38,4.35-20.49,18.58,11.61,15.18,34.92-4.86,20.49-18.58Z"/>
    </g>
    <g>
      <path class="st41" d="M94.59,671.66c4.52-.49,8.1-3.92,12.81-4.37,26.87-2.56,29.13,43.29-.92,38.55-.26,4.19,4.47,3.92,7.2,8.39,12.07,19.79-14.63,39.84-30.25,25.77-3.45-3.11-3.47-6.36-5.2-9.38-2.62-4.56-3.65,4.29-5.9,7.17-14.08,18.04-46.95-2.5-31.04-25.09,2.14-3.04,4.73-2.85,5.73-5.38-31.17.61-26.07-45.51,1.89-39.79,3.57.73,6.2,4.29,10,4.11-11.48-36.19,47.14-36.19,35.66,0l.02.02ZM88.13,685.55c-12.79-12.17-36.87,5.11-24.07,21.83,13.64,17.83,41.02-5.71,24.07-21.83Z"/>
      <path class="st17" d="M94.59,671.66c4.52-.49,8.1-3.92,12.81-4.37,26.87-2.56,29.13,43.29-.92,38.55-.26,4.19,4.47,3.92,7.2,8.39,12.07,19.79-14.63,39.84-30.25,25.77-3.45-3.11-3.47-6.36-5.2-9.38-2.62-4.56-3.65,4.29-5.9,7.17-14.08,18.04-46.95-2.5-31.04-25.09,2.14-3.04,4.73-2.85,5.73-5.38-31.17.61-26.07-45.51,1.89-39.79,3.57.73,6.2,4.29,10,4.11-11.48-36.19,47.14-36.19,35.66,0l.02.02ZM88.13,685.55c-12.79-12.17-36.87,5.11-24.07,21.83,13.64,17.83,41.02-5.71,24.07-21.83Z"/>
    </g>
    <g>
      <path class="st42" d="M98.53,71.49c5.25-.57,9.41-4.54,14.9-5.06,31.24-2.96,33.87,50.11-1.07,44.63-.31,4.85,5.2,4.54,8.37,9.71,14.03,22.91-17.01,46.12-35.18,29.84-4.02-3.6-4.04-7.36-6.05-10.86-3.04-5.28-4.25,4.97-6.86,8.31-16.37,20.89-54.59-2.9-36.09-29.04,2.49-3.51,5.5-3.3,6.67-6.23-36.24.7-30.31-52.69,2.2-46.07,4.15.85,7.21,4.97,11.63,4.76-13.35-41.89,54.82-41.9,41.47,0h0ZM91.02,87.58c-14.87-14.09-42.87,5.91-27.99,25.28,15.86,20.64,47.7-6.61,27.99-25.28Z"/>
      <path class="st14" d="M98.53,71.49c5.25-.57,9.41-4.54,14.9-5.06,31.24-2.96,33.87,50.11-1.07,44.63-.31,4.85,5.2,4.54,8.37,9.71,14.03,22.91-17.01,46.12-35.18,29.84-4.02-3.6-4.04-7.36-6.05-10.86-3.04-5.28-4.25,4.97-6.86,8.31-16.37,20.89-54.59-2.9-36.09-29.04,2.49-3.51,5.5-3.3,6.67-6.23-36.24.7-30.31-52.69,2.2-46.07,4.15.85,7.21,4.97,11.63,4.76-13.35-41.89,54.82-41.9,41.47,0h0ZM91.02,87.58c-14.87-14.09-42.87,5.91-27.99,25.28,15.86,20.64,47.7-6.61,27.99-25.28Z"/>
    </g>
    <g class="st49">
      <path class="st60" d="M124.84,165.65c3.14-.34,5.63-2.73,8.91-3.04,18.68-1.78,20.25,30.1-.64,26.81-.18,2.92,3.11,2.73,5.01,5.83,8.39,13.76-10.17,27.7-21.03,17.92-2.4-2.16-2.41-4.42-3.62-6.52-1.82-3.17-2.54,2.99-4.1,4.99-9.79,12.55-32.65-1.74-21.58-17.44,1.49-2.11,3.29-1.98,3.99-3.74-21.67.42-18.12-31.65,1.32-27.67,2.48.51,4.31,2.99,6.96,2.86-7.98-25.16,32.78-25.16,24.8,0h-.02ZM120.35,175.31c-8.89-8.46-25.63,3.55-16.74,15.18,9.48,12.4,28.52-3.97,16.74-15.18Z"/>
    </g>
    <g class="st47">
      <path class="st28" d="M687.37,646.28c5.83-.64,10.45-5.06,16.53-5.64,34.67-3.3,37.59,55.86-1.18,49.75-.34,5.41,5.77,5.06,9.29,10.83,15.57,25.54-18.87,51.41-39.04,33.26-4.46-4.01-4.48-8.21-6.71-12.1-3.38-5.89-4.71,5.54-7.61,9.26-18.17,23.28-60.59-3.23-40.05-32.37,2.76-3.92,6.1-3.68,7.4-6.95-40.22.78-33.63-58.73,2.44-51.35,4.61.94,8,5.54,12.91,5.31-14.82-46.7,60.84-46.7,46.02,0h0ZM679.03,664.22c-16.51-15.7-47.57,6.59-31.06,28.17,17.6,23.01,52.93-7.37,31.06-28.17Z"/>
      <path class="st20" d="M687.37,646.28c5.83-.64,10.45-5.06,16.53-5.64,34.67-3.3,37.59,55.86-1.18,49.75-.34,5.41,5.77,5.06,9.29,10.83,15.57,25.54-18.87,51.41-39.04,33.26-4.46-4.01-4.48-8.21-6.71-12.1-3.38-5.89-4.71,5.54-7.61,9.26-18.17,23.28-60.59-3.23-40.05-32.37,2.76-3.92,6.1-3.68,7.4-6.95-40.22.78-33.63-58.73,2.44-51.35,4.61.94,8,5.54,12.91,5.31-14.82-46.7,60.84-46.7,46.02,0h0ZM679.03,664.22c-16.51-15.7-47.57,6.59-31.06,28.17,17.6,23.01,52.93-7.37,31.06-28.17Z"/>
    </g>
    <g class="st46">
      <path class="st0" d="M667.98,322.09c4.58-.5,8.21-3.97,12.99-4.43,27.24-2.59,29.53,43.89-.93,39.09-.27,4.25,4.54,3.97,7.3,8.51,12.23,20.06-14.83,40.39-30.67,26.13-3.5-3.15-3.52-6.45-5.27-9.51-2.65-4.63-3.7,4.35-5.98,7.27-14.27,18.29-47.6-2.54-31.47-25.43,2.17-3.08,4.8-2.89,5.81-5.46-31.6.62-26.43-46.14,1.92-40.34,3.62.74,6.29,4.35,10.14,4.17-11.64-36.69,47.8-36.69,36.16,0ZM661.43,336.17c-12.97-12.34-37.38,5.18-24.41,22.14,13.83,18.08,41.59-5.79,24.41-22.14Z"/>
    </g>
    <g>
      <path class="st34" d="M83.51,343.01c3.79-.41,6.79-3.29,10.75-3.67,22.55-2.15,24.45,36.32-.77,32.35-.22,3.52,3.75,3.29,6.04,7.04,10.13,16.61-12.27,33.43-25.39,21.63-2.9-2.61-2.91-5.34-4.36-7.87-2.2-3.83-3.06,3.6-4.95,6.02-11.81,15.14-39.4-2.1-26.05-21.05,1.8-2.55,3.97-2.39,4.81-4.52-26.16.51-21.87-38.19,1.59-33.39,3,.61,5.2,3.6,8.39,3.45-9.64-30.37,39.56-30.37,29.93,0h0ZM78.09,354.67c-10.73-10.21-30.94,4.28-20.2,18.32,11.45,14.96,34.42-4.79,20.2-18.32Z"/>
      <path class="st22" d="M83.51,343.01c3.79-.41,6.79-3.29,10.75-3.67,22.55-2.15,24.45,36.32-.77,32.35-.22,3.52,3.75,3.29,6.04,7.04,10.13,16.61-12.27,33.43-25.39,21.63-2.9-2.61-2.91-5.34-4.36-7.87-2.2-3.83-3.06,3.6-4.95,6.02-11.81,15.14-39.4-2.1-26.05-21.05,1.8-2.55,3.97-2.39,4.81-4.52-26.16.51-21.87-38.19,1.59-33.39,3,.61,5.2,3.6,8.39,3.45-9.64-30.37,39.56-30.37,29.93,0h0ZM78.09,354.67c-10.73-10.21-30.94,4.28-20.2,18.32,11.45,14.96,34.42-4.79,20.2-18.32Z"/>
    </g>
    <g class="st54">
      <path class="st3" d="M140.25,344.36c3.07-.34,5.51-2.67,8.72-2.97,18.29-1.74,19.83,29.47-.62,26.24-.18,2.85,3.05,2.67,4.9,5.71,8.21,13.47-9.96,27.12-20.59,17.55-2.35-2.12-2.36-4.33-3.54-6.38-1.78-3.11-2.49,2.92-4.02,4.88-9.58,12.28-31.96-1.71-21.13-17.08,1.46-2.07,3.22-1.94,3.9-3.67-21.22.41-17.74-30.98,1.29-27.09,2.43.5,4.22,2.92,6.81,2.8-7.82-24.63,32.09-24.64,24.28,0h0ZM135.86,353.82c-8.71-8.28-25.1,3.48-16.39,14.86,9.28,12.14,27.92-3.89,16.39-14.86Z"/>
    </g>
    <g>
      <path class="st35" d="M256.68,392.96c2.23-.24,4.01-1.94,6.34-2.16,13.29-1.27,14.41,21.42-.45,19.07-.13,2.07,2.21,1.94,3.56,4.15,5.97,9.79-7.24,19.71-14.97,12.75-1.71-1.54-1.72-3.15-2.57-4.64-1.29-2.26-1.81,2.12-2.92,3.55-6.97,8.93-23.23-1.24-15.36-12.41,1.06-1.5,2.34-1.41,2.84-2.66-15.42.3-12.9-22.52.94-19.69,1.77.36,3.07,2.12,4.95,2.04-5.68-17.9,23.33-17.91,17.65,0h-.01ZM253.48,399.83c-6.33-6.02-18.24,2.53-11.91,10.8,6.75,8.82,20.3-2.83,11.91-10.8Z"/>
      <path class="st24" d="M256.68,392.96c2.23-.24,4.01-1.94,6.34-2.16,13.29-1.27,14.41,21.42-.45,19.07-.13,2.07,2.21,1.94,3.56,4.15,5.97,9.79-7.24,19.71-14.97,12.75-1.71-1.54-1.72-3.15-2.57-4.64-1.29-2.26-1.81,2.12-2.92,3.55-6.97,8.93-23.23-1.24-15.36-12.41,1.06-1.5,2.34-1.41,2.84-2.66-15.42.3-12.9-22.52.94-19.69,1.77.36,3.07,2.12,4.95,2.04-5.68-17.9,23.33-17.91,17.65,0h-.01ZM253.48,399.83c-6.33-6.02-18.24,2.53-11.91,10.8,6.75,8.82,20.3-2.83,11.91-10.8Z"/>
    </g>
    <g class="st50">
      <path class="st59" d="M493.76,89.77c3.34-.36,5.99-2.9,9.47-3.23,19.87-1.89,21.54,32.01-.68,28.51-.19,3.1,3.31,2.9,5.32,6.21,8.92,14.64-10.82,29.46-22.37,19.06-2.55-2.3-2.57-4.7-3.85-6.93-1.94-3.38-2.7,3.18-4.36,5.31-10.41,13.34-34.73-1.85-22.95-18.55,1.58-2.24,3.5-2.11,4.24-3.98-23.05.45-19.28-33.66,1.4-29.43,2.64.54,4.59,3.18,7.4,3.04-8.49-26.76,34.87-26.77,26.38,0h0ZM488.98,100.05c-9.46-9-27.27,3.78-17.8,16.15,10.09,13.19,30.34-4.22,17.8-16.15Z"/>
    </g>
    <g class="st45">
      <path class="st56" d="M294.01,684.5c2.58-.28,4.63-2.24,7.32-2.5,15.36-1.46,16.65,24.74-.52,22.03-.15,2.4,2.56,2.24,4.11,4.8,6.9,11.31-8.36,22.77-17.29,14.73-1.97-1.78-1.98-3.63-2.97-5.36-1.5-2.61-2.09,2.45-3.37,4.1-8.05,10.31-26.83-1.43-17.74-14.34,1.22-1.73,2.7-1.63,3.28-3.08-17.81.35-14.9-26.01,1.08-22.74,2.04.42,3.54,2.45,5.72,2.35-6.56-20.68,26.94-20.68,20.38,0h0ZM290.32,692.44c-7.31-6.95-21.07,2.92-13.76,12.48,7.79,10.19,23.44-3.26,13.76-12.48Z"/>
    </g>
    <g class="st52">
      <path class="st8" d="M283.88,69.1c2.7-.3,4.85-2.35,7.67-2.62,16.08-1.53,17.44,25.91-.55,23.08-.16,2.51,2.68,2.35,4.31,5.02,7.22,11.85-8.76,23.85-18.11,15.43-2.07-1.86-2.08-3.81-3.11-5.61-1.57-2.73-2.19,2.57-3.53,4.3-8.43,10.8-28.11-1.5-18.58-15.02,1.28-1.82,2.83-1.71,3.43-3.22-18.66.36-15.6-27.25,1.13-23.82,2.14.44,3.71,2.57,5.99,2.46-6.87-21.66,28.22-21.67,21.35,0h0ZM280.01,77.42c-7.66-7.28-22.07,3.06-14.41,13.07,8.16,10.67,24.56-3.42,14.41-13.07Z"/>
    </g>
    <g class="st54">
      <path class="st28" d="M503.44,239.24c5.83-.64,10.45-5.06,16.53-5.64,34.67-3.3,37.59,55.86-1.18,49.75-.34,5.41,5.77,5.06,9.29,10.83,15.57,25.54-18.87,51.41-39.04,33.26-4.46-4.01-4.48-8.21-6.71-12.1-3.38-5.89-4.71,5.54-7.61,9.26-18.17,23.28-60.59-3.23-40.05-32.37,2.76-3.92,6.1-3.68,7.4-6.95-40.22.78-33.63-58.73,2.44-51.35,4.61.94,8,5.54,12.91,5.31-14.82-46.7,60.84-46.7,46.02,0h0ZM495.11,257.17c-16.51-15.7-47.57,6.59-31.06,28.17,17.6,23.01,52.93-7.37,31.06-28.17Z"/>
      <path class="st20" d="M503.44,239.24c5.83-.64,10.45-5.06,16.53-5.64,34.67-3.3,37.59,55.86-1.18,49.75-.34,5.41,5.77,5.06,9.29,10.83,15.57,25.54-18.87,51.41-39.04,33.26-4.46-4.01-4.48-8.21-6.71-12.1-3.38-5.89-4.71,5.54-7.61,9.26-18.17,23.28-60.59-3.23-40.05-32.37,2.76-3.92,6.1-3.68,7.4-6.95-40.22.78-33.63-58.73,2.44-51.35,4.61.94,8,5.54,12.91,5.31-14.82-46.7,60.84-46.7,46.02,0h0ZM495.11,257.17c-16.51-15.7-47.57,6.59-31.06,28.17,17.6,23.01,52.93-7.37,31.06-28.17Z"/>
    </g>
    <g class="st47">
      <path class="st36" d="M732.89,290.91c3.44-.38,6.17-2.99,9.76-3.33,20.47-1.95,22.19,32.98-.7,29.37-.2,3.19,3.41,2.99,5.49,6.39,9.19,15.08-11.14,30.35-23.05,19.64-2.63-2.37-2.65-4.85-3.96-7.14-1.99-3.48-2.78,3.27-4.49,5.47-10.73,13.75-35.77-1.91-23.65-19.11,1.63-2.31,3.6-2.17,4.37-4.1-23.75.46-19.86-34.68,1.44-30.32,2.72.56,4.72,3.27,7.62,3.13-8.75-27.57,35.92-27.57,27.17,0h0ZM727.97,301.5c-9.75-9.27-28.09,3.89-18.34,16.64,10.39,13.59,31.25-4.35,18.34-16.64Z"/>
      <path class="st15" d="M732.89,290.91c3.44-.38,6.17-2.99,9.76-3.33,20.47-1.95,22.19,32.98-.7,29.37-.2,3.19,3.41,2.99,5.49,6.39,9.19,15.08-11.14,30.35-23.05,19.64-2.63-2.37-2.65-4.85-3.96-7.14-1.99-3.48-2.78,3.27-4.49,5.47-10.73,13.75-35.77-1.91-23.65-19.11,1.63-2.31,3.6-2.17,4.37-4.1-23.75.46-19.86-34.68,1.44-30.32,2.72.56,4.72,3.27,7.62,3.13-8.75-27.57,35.92-27.57,27.17,0h0ZM727.97,301.5c-9.75-9.27-28.09,3.89-18.34,16.64,10.39,13.59,31.25-4.35,18.34-16.64Z"/>
    </g>
    <g class="st51">
      <path class="st61" d="M855.14,483.82c7.64-.83,13.7-6.63,21.68-7.39,45.46-4.33,49.29,73.24-1.55,65.23-.44,7.09,7.57,6.63,12.18,14.2,20.42,33.48-24.75,67.41-51.19,43.61-5.84-5.26-5.87-10.76-8.8-15.87-4.43-7.72-6.18,7.27-9.98,12.14-23.82,30.53-79.45-4.24-52.51-42.44,3.62-5.14,8-4.82,9.7-9.11-52.74,1.03-44.1-77.01,3.2-67.33,6.04,1.24,10.49,7.27,16.93,6.96-19.43-61.23,79.77-61.24,60.35,0h-.01ZM844.21,507.33c-21.64-20.59-62.38,8.64-40.73,36.94,23.08,30.17,69.41-9.66,40.73-36.94Z"/>
    </g>
    <path class="st7" d="M780.44,129.99c4.97-.54,8.92-4.32,14.11-4.81,29.6-2.82,32.09,47.68-1.01,42.47-.29,4.62,4.93,4.32,7.93,9.24,13.29,21.8-16.11,43.88-33.32,28.39-3.8-3.42-3.82-7.01-5.73-10.33-2.88-5.03-4.02,4.73-6.5,7.9-15.51,19.87-51.72-2.76-34.19-27.63,2.36-3.34,5.21-3.14,6.32-5.93-34.33.67-28.71-50.13,2.08-43.83,3.93.8,6.83,4.73,11.02,4.53-12.65-39.86,51.93-39.86,39.28,0h0ZM773.32,145.3c-14.09-13.4-40.61,5.62-26.51,24.05,15.02,19.64,45.18-6.29,26.51-24.05Z"/>
    <g class="st53">
      <path class="st4" d="M902.44,254.79c3.56-.39,6.38-3.09,10.1-3.44,21.18-2.02,22.96,34.12-.72,30.39-.21,3.3,3.53,3.09,5.68,6.61,9.51,15.6-11.53,31.4-23.85,20.32-2.72-2.45-2.74-5.01-4.1-7.39-2.06-3.6-2.88,3.39-4.65,5.66-11.1,14.22-37.01-1.97-24.46-19.77,1.69-2.39,3.73-2.25,4.52-4.24-24.57.48-20.55-35.88,1.49-31.36,2.81.58,4.89,3.38,7.89,3.24-9.05-28.52,37.16-28.53,28.11,0v-.02ZM897.35,265.75c-10.08-9.59-29.06,4.02-18.97,17.21,10.75,14.06,32.33-4.5,18.97-17.21Z"/>
    </g>
    <g>
      <path class="st32" d="M838.62,69.68c3.91-.43,7.01-3.4,11.1-3.79,23.28-2.22,25.24,37.5-.79,33.4-.23,3.63,3.88,3.4,6.24,7.27,10.45,17.15-12.67,34.52-26.21,22.33-2.99-2.69-3.01-5.51-4.51-8.12-2.27-3.95-3.16,3.72-5.11,6.22-12.2,15.63-40.68-2.17-26.89-21.73,1.85-2.63,4.1-2.47,4.97-4.67-27.01.53-22.58-39.43,1.64-34.48,3.09.63,5.37,3.72,8.67,3.56-9.95-31.35,40.85-31.36,30.9,0h-.01ZM833.02,81.72c-11.08-10.54-31.94,4.42-20.86,18.92,11.82,15.45,35.54-4.95,20.86-18.92Z"/>
      <path class="st23" d="M838.62,69.68c3.91-.43,7.01-3.4,11.1-3.79,23.28-2.22,25.24,37.5-.79,33.4-.23,3.63,3.88,3.4,6.24,7.27,10.45,17.15-12.67,34.52-26.21,22.33-2.99-2.69-3.01-5.51-4.51-8.12-2.27-3.95-3.16,3.72-5.11,6.22-12.2,15.63-40.68-2.17-26.89-21.73,1.85-2.63,4.1-2.47,4.97-4.67-27.01.53-22.58-39.43,1.64-34.48,3.09.63,5.37,3.72,8.67,3.56-9.95-31.35,40.85-31.36,30.9,0h-.01ZM833.02,81.72c-11.08-10.54-31.94,4.42-20.86,18.92,11.82,15.45,35.54-4.95,20.86-18.92Z"/>
    </g>
    <g>
      <path class="st37" d="M767.01,455.86c4.12-.45,7.38-3.58,11.68-3.98,24.5-2.33,26.57,39.47-.84,35.16-.24,3.82,4.08,3.57,6.57,7.65,11,18.05-13.34,36.33-27.59,23.51-3.15-2.84-3.17-5.8-4.74-8.55-2.39-4.16-3.33,3.92-5.38,6.54-12.84,16.45-42.82-2.28-28.3-22.88,1.95-2.77,4.31-2.6,5.23-4.91-28.42.55-23.77-41.51,1.73-36.29,3.26.67,5.65,3.92,9.12,3.75-10.47-33,42.99-33,32.52,0ZM761.12,468.53c-11.66-11.1-33.62,4.66-21.95,19.91,12.44,16.26,37.41-5.21,21.95-19.91Z"/>
      <path class="st19" d="M767.01,455.86c4.12-.45,7.38-3.58,11.68-3.98,24.5-2.33,26.57,39.47-.84,35.16-.24,3.82,4.08,3.57,6.57,7.65,11,18.05-13.34,36.33-27.59,23.51-3.15-2.84-3.17-5.8-4.74-8.55-2.39-4.16-3.33,3.92-5.38,6.54-12.84,16.45-42.82-2.28-28.3-22.88,1.95-2.77,4.31-2.6,5.23-4.91-28.42.55-23.77-41.51,1.73-36.29,3.26.67,5.65,3.92,9.12,3.75-10.47-33,42.99-33,32.52,0ZM761.12,468.53c-11.66-11.1-33.62,4.66-21.95,19.91,12.44,16.26,37.41-5.21,21.95-19.91Z"/>
    </g>
    <g>
      <path class="st29" d="M983.56,304.68c6.23-.68,11.17-5.41,17.68-6.03,37.07-3.53,40.19,59.72-1.26,53.19-.36,5.78,6.17,5.41,9.93,11.58,16.65,27.3-20.18,54.97-41.74,35.56-4.77-4.29-4.79-8.78-7.18-12.94-3.61-6.3-5.04,5.93-8.14,9.9-19.42,24.89-64.78-3.46-42.82-34.61,2.95-4.19,6.53-3.93,7.91-7.43-43,.84-35.96-62.8,2.61-54.9,4.93,1.01,8.55,5.92,13.8,5.67-15.84-49.93,65.05-49.93,49.21,0h0ZM974.64,323.85c-17.65-16.79-50.87,7.04-33.21,30.12,18.82,24.6,56.6-7.88,33.21-30.12Z"/>
      <path class="st25" d="M983.56,304.68c6.23-.68,11.17-5.41,17.68-6.03,37.07-3.53,40.19,59.72-1.26,53.19-.36,5.78,6.17,5.41,9.93,11.58,16.65,27.3-20.18,54.97-41.74,35.56-4.77-4.29-4.79-8.78-7.18-12.94-3.61-6.3-5.04,5.93-8.14,9.9-19.42,24.89-64.78-3.46-42.82-34.61,2.95-4.19,6.53-3.93,7.91-7.43-43,.84-35.96-62.8,2.61-54.9,4.93,1.01,8.55,5.92,13.8,5.67-15.84-49.93,65.05-49.93,49.21,0h0ZM974.64,323.85c-17.65-16.79-50.87,7.04-33.21,30.12,18.82,24.6,56.6-7.88,33.21-30.12Z"/>
    </g>
    <g class="st44">
      <path class="st6" d="M1067.29,78.31c4.92-.54,8.82-4.27,13.96-4.76,29.28-2.79,31.75,47.18-1,42.02-.29,4.57,4.88,4.27,7.85,9.15,13.15,21.57-15.94,43.42-32.97,28.09-3.76-3.39-3.78-6.93-5.67-10.22-2.85-4.98-3.98,4.68-6.43,7.82-15.34,19.67-51.17-2.73-33.83-27.34,2.33-3.31,5.15-3.11,6.25-5.87-33.97.66-28.41-49.61,2.06-43.37,3.89.8,6.76,4.68,10.9,4.48-12.51-39.44,51.38-39.45,38.87,0h.01ZM1060.25,93.46c-13.94-13.26-40.18,5.56-26.24,23.8,14.87,19.44,44.71-6.22,26.24-23.8Z"/>
    </g>
    <g class="st49">
      <path class="st5" d="M1055.99,603.44c5.91-.64,10.58-5.13,16.75-5.71,35.13-3.35,38.09,56.6-1.2,50.41-.34,5.48,5.85,5.12,9.41,10.97,15.78,25.87-19.12,52.09-39.55,33.7-4.52-4.06-4.54-8.32-6.8-12.26-3.42-5.97-4.77,5.62-7.71,9.38-18.41,23.59-61.39-3.27-40.58-32.8,2.8-3.97,6.18-3.73,7.5-7.04-40.75.8-34.08-59.51,2.47-52.03,4.67.96,8.11,5.61,13.08,5.38-15.01-47.31,61.64-47.32,46.63,0h0ZM1047.54,621.61c-16.72-15.91-48.2,6.68-31.47,28.55,17.83,23.32,53.63-7.47,31.47-28.55Z"/>
    </g>
    <g>
      <path class="st40" d="M1130.85,128.52c4.18-.46,7.5-3.63,11.87-4.05,24.89-2.37,26.99,40.1-.85,35.71-.24,3.88,4.14,3.63,6.67,7.77,11.18,18.33-13.55,36.91-28.02,23.88-3.2-2.88-3.22-5.89-4.82-8.69-2.42-4.23-3.38,3.98-5.47,6.65-13.04,16.71-43.5-2.32-28.75-23.24,1.98-2.81,4.38-2.64,5.31-4.99-28.87.56-24.15-42.16,1.75-36.86,3.31.68,5.74,3.98,9.27,3.81-10.64-33.52,43.67-33.53,33.04,0h0ZM1124.87,141.39c-11.85-11.27-34.15,4.73-22.3,20.23,12.63,16.52,38-5.29,22.3-20.23Z"/>
      <path class="st18" d="M1130.85,128.52c4.18-.46,7.5-3.63,11.87-4.05,24.89-2.37,26.99,40.1-.85,35.71-.24,3.88,4.14,3.63,6.67,7.77,11.18,18.33-13.55,36.91-28.02,23.88-3.2-2.88-3.22-5.89-4.82-8.69-2.42-4.23-3.38,3.98-5.47,6.65-13.04,16.71-43.5-2.32-28.75-23.24,1.98-2.81,4.38-2.64,5.31-4.99-28.87.56-24.15-42.16,1.75-36.86,3.31.68,5.74,3.98,9.27,3.81-10.64-33.52,43.67-33.53,33.04,0h0ZM1124.87,141.39c-11.85-11.27-34.15,4.73-22.3,20.23,12.63,16.52,38-5.29,22.3-20.23Z"/>
    </g>
    <g>
      <path class="st40" d="M1130.81,504.21c4.18-.46,7.5-3.63,11.87-4.05,24.89-2.37,26.99,40.1-.85,35.71-.24,3.88,4.14,3.63,6.67,7.77,11.18,18.33-13.55,36.91-28.02,23.88-3.2-2.88-3.22-5.89-4.82-8.69-2.42-4.23-3.38,3.98-5.47,6.65-13.04,16.71-43.5-2.32-28.75-23.24,1.98-2.81,4.38-2.64,5.31-4.99-28.87.56-24.15-42.16,1.75-36.86,3.31.68,5.74,3.98,9.27,3.81-10.64-33.52,43.67-33.53,33.04,0h0ZM1124.83,517.08c-11.85-11.27-34.15,4.73-22.3,20.23,12.63,16.52,38-5.29,22.3-20.23Z"/>
      <path class="st18" d="M1130.81,504.21c4.18-.46,7.5-3.63,11.87-4.05,24.89-2.37,26.99,40.1-.85,35.71-.24,3.88,4.14,3.63,6.67,7.77,11.18,18.33-13.55,36.91-28.02,23.88-3.2-2.88-3.22-5.89-4.82-8.69-2.42-4.23-3.38,3.98-5.47,6.65-13.04,16.71-43.5-2.32-28.75-23.24,1.98-2.81,4.38-2.64,5.31-4.99-28.87.56-24.15-42.16,1.75-36.86,3.31.68,5.74,3.98,9.27,3.81-10.64-33.52,43.67-33.53,33.04,0h0ZM1124.83,517.08c-11.85-11.27-34.15,4.73-22.3,20.23,12.63,16.52,38-5.29,22.3-20.23Z"/>
    </g>
    <g class="st48">
      <path class="st2" d="M1136.57,361.55c2.7-.3,4.85-2.35,7.67-2.62,16.08-1.53,17.44,25.91-.55,23.08-.16,2.51,2.68,2.35,4.31,5.02,7.22,11.85-8.76,23.85-18.11,15.43-2.07-1.86-2.08-3.81-3.11-5.61-1.57-2.73-2.19,2.57-3.53,4.3-8.43,10.8-28.11-1.5-18.58-15.02,1.28-1.82,2.83-1.71,3.43-3.22-18.66.36-15.6-27.25,1.13-23.82,2.14.44,3.71,2.57,5.99,2.46-6.87-21.66,28.22-21.67,21.35,0h0ZM1132.71,369.87c-7.66-7.28-22.07,3.06-14.41,13.07,8.16,10.67,24.56-3.42,14.41-13.07Z"/>
    </g>
    <path class="st11" d="M902.36,690.57c3.54-.39,6.34-3.07,10.04-3.42,21.05-2.01,22.82,33.91-.72,30.2-.21,3.28,3.5,3.07,5.64,6.57,9.45,15.5-11.46,31.21-23.7,20.19-2.71-2.44-2.72-4.98-4.07-7.35-2.05-3.58-2.86,3.36-4.62,5.62-11.03,14.14-36.79-1.96-24.32-19.65,1.68-2.38,3.71-2.23,4.49-4.22-24.42.48-20.42-35.66,1.48-31.17,2.8.57,4.86,3.36,7.84,3.22-9-28.35,36.94-28.35,27.94,0h0ZM897.3,701.46c-10.02-9.53-28.88,4-18.86,17.11,10.69,13.97,32.14-4.47,18.86-17.11Z"/>
    <path class="st10" d="M1321.14,51.71c3.54-.39,6.34-3.07,10.04-3.42,21.05-2.01,22.82,33.91-.72,30.2-.21,3.28,3.5,3.07,5.64,6.57,9.45,15.5-11.46,31.21-23.7,20.19-2.71-2.44-2.72-4.98-4.07-7.35-2.05-3.58-2.86,3.36-4.62,5.62-11.03,14.14-36.79-1.96-24.32-19.65,1.68-2.38,3.71-2.23,4.49-4.22-24.42.48-20.42-35.66,1.48-31.17,2.8.57,4.86,3.36,7.84,3.22-9-28.35,36.94-28.35,27.94,0h0ZM1316.08,62.6c-10.02-9.53-28.88,4-18.86,17.11,10.69,13.97,32.14-4.47,18.86-17.11Z"/>
    <g>
      <path class="st35" d="M1223.28,697.2c2.23-.24,4.01-1.94,6.34-2.16,13.29-1.27,14.41,21.42-.45,19.07-.13,2.07,2.21,1.94,3.56,4.15,5.97,9.79-7.24,19.71-14.97,12.75-1.71-1.54-1.72-3.15-2.57-4.64-1.29-2.26-1.81,2.12-2.92,3.55-6.97,8.93-23.23-1.24-15.36-12.41,1.06-1.5,2.34-1.41,2.84-2.66-15.42.3-12.9-22.52.94-19.69,1.77.36,3.07,2.12,4.95,2.04-5.68-17.9,23.33-17.91,17.65,0h-.01ZM1220.08,704.08c-6.33-6.02-18.24,2.53-11.91,10.8,6.75,8.82,20.3-2.83,11.91-10.8Z"/>
      <path class="st24" d="M1223.28,697.2c2.23-.24,4.01-1.94,6.34-2.16,13.29-1.27,14.41,21.42-.45,19.07-.13,2.07,2.21,1.94,3.56,4.15,5.97,9.79-7.24,19.71-14.97,12.75-1.71-1.54-1.72-3.15-2.57-4.64-1.29-2.26-1.81,2.12-2.92,3.55-6.97,8.93-23.23-1.24-15.36-12.41,1.06-1.5,2.34-1.41,2.84-2.66-15.42.3-12.9-22.52.94-19.69,1.77.36,3.07,2.12,4.95,2.04-5.68-17.9,23.33-17.91,17.65,0h-.01ZM1220.08,704.08c-6.33-6.02-18.24,2.53-11.91,10.8,6.75,8.82,20.3-2.83,11.91-10.8Z"/>
    </g>
    <g>
      <path class="st39" d="M1008.74,687.01c4.24-.46,7.6-3.68,12.02-4.1,25.22-2.4,27.34,40.62-.86,36.18-.25,3.93,4.2,3.68,6.76,7.87,11.32,18.57-13.73,37.39-28.39,24.19-3.24-2.92-3.26-5.97-4.88-8.8-2.46-4.28-3.43,4.03-5.54,6.73-13.21,16.93-44.07-2.35-29.13-23.54,2.01-2.85,4.44-2.68,5.38-5.05-29.25.57-24.46-42.71,1.78-37.34,3.35.69,5.82,4.03,9.39,3.86-10.78-33.96,44.25-33.97,33.47,0h0ZM1002.68,700.05c-12-11.42-34.6,4.79-22.59,20.49,12.8,16.74,38.5-5.36,22.59-20.49Z"/>
      <path class="st16" d="M1008.74,687.01c4.24-.46,7.6-3.68,12.02-4.1,25.22-2.4,27.34,40.62-.86,36.18-.25,3.93,4.2,3.68,6.76,7.87,11.32,18.57-13.73,37.39-28.39,24.19-3.24-2.92-3.26-5.97-4.88-8.8-2.46-4.28-3.43,4.03-5.54,6.73-13.21,16.93-44.07-2.35-29.13-23.54,2.01-2.85,4.44-2.68,5.38-5.05-29.25.57-24.46-42.71,1.78-37.34,3.35.69,5.82,4.03,9.39,3.86-10.78-33.96,44.25-33.97,33.47,0h0ZM1002.68,700.05c-12-11.42-34.6,4.79-22.59,20.49,12.8,16.74,38.5-5.36,22.59-20.49Z"/>
    </g>
    <g class="st49">
      <path class="st26" d="M1292.89,226.12c5.07-.55,9.09-4.4,14.38-4.91,30.17-2.87,32.7,48.6-1.03,43.28-.29,4.71,5.02,4.4,8.08,9.42,13.55,22.22-16.42,44.73-33.96,28.94-3.88-3.49-3.9-7.14-5.84-10.53-2.94-5.12-4.1,4.82-6.62,8.06-15.81,20.26-52.72-2.81-34.84-28.16,2.4-3.41,5.31-3.2,6.44-6.05-34.99.68-29.26-51.1,2.12-44.67,4.01.82,6.96,4.82,11.23,4.62-12.89-40.63,52.93-40.63,40.04,0h0ZM1285.64,241.72c-14.36-13.66-41.39,5.73-27.03,24.51,15.31,20.02,46.05-6.41,27.03-24.51Z"/>
    </g>
    <g>
      <path class="st31" d="M1226.59,243.35c2.55-.27,4.56-2.14,7.22-2.39,15.14-1.4,16.42,23.68-.52,21.09-.15,2.29,2.52,2.14,4.06,4.59,6.8,10.82-8.24,21.79-17.05,14.1-1.95-1.7-1.96-3.48-2.93-5.13-1.47-2.5-2.06,2.35-3.33,3.92-7.94,9.87-26.47-1.37-17.49-13.72,1.21-1.66,2.67-1.56,3.23-2.95-17.57.33-14.69-24.9,1.07-21.76,2.01.4,3.49,2.35,5.64,2.25-6.47-19.79,26.57-19.8,20.1,0h0ZM1222.94,250.95c-7.21-6.66-20.78,2.79-13.57,11.94,7.69,9.75,23.12-3.12,13.57-11.94Z"/>
      <path class="st21" d="M1226.59,243.35c2.55-.27,4.56-2.14,7.22-2.39,15.14-1.4,16.42,23.68-.52,21.09-.15,2.29,2.52,2.14,4.06,4.59,6.8,10.82-8.24,21.79-17.05,14.1-1.95-1.7-1.96-3.48-2.93-5.13-1.47-2.5-2.06,2.35-3.33,3.92-7.94,9.87-26.47-1.37-17.49-13.72,1.21-1.66,2.67-1.56,3.23-2.95-17.57.33-14.69-24.9,1.07-21.76,2.01.4,3.49,2.35,5.64,2.25-6.47-19.79,26.57-19.8,20.1,0h0ZM1222.94,250.95c-7.21-6.66-20.78,2.79-13.57,11.94,7.69,9.75,23.12-3.12,13.57-11.94Z"/>
    </g>
    <g>
      <path class="st38" d="M1320.09,581.22c3.28-.36,5.87-2.85,9.3-3.17,19.5-1.86,21.14,31.41-.66,27.98-.19,3.04,3.25,2.84,5.22,6.09,8.76,14.36-10.61,28.91-21.95,18.7-2.51-2.26-2.52-4.62-3.77-6.8-1.9-3.31-2.65,3.12-4.28,5.21-10.22,13.09-34.07-1.82-22.52-18.2,1.55-2.2,3.43-2.07,4.16-3.91-22.62.44-18.92-33.03,1.37-28.88,2.59.53,4.5,3.12,7.26,2.98-8.33-26.26,34.21-26.26,25.88,0h-.01ZM1315.4,591.3c-9.28-8.83-26.75,3.71-17.47,15.84,9.9,12.94,29.77-4.14,17.47-15.84Z"/>
      <path class="st13" d="M1320.09,581.22c3.28-.36,5.87-2.85,9.3-3.17,19.5-1.86,21.14,31.41-.66,27.98-.19,3.04,3.25,2.84,5.22,6.09,8.76,14.36-10.61,28.91-21.95,18.7-2.51-2.26-2.52-4.62-3.77-6.8-1.9-3.31-2.65,3.12-4.28,5.21-10.22,13.09-34.07-1.82-22.52-18.2,1.55-2.2,3.43-2.07,4.16-3.91-22.62.44-18.92-33.03,1.37-28.88,2.59.53,4.5,3.12,7.26,2.98-8.33-26.26,34.21-26.26,25.88,0h-.01ZM1315.4,591.3c-9.28-8.83-26.75,3.71-17.47,15.84,9.9,12.94,29.77-4.14,17.47-15.84Z"/>
    </g>
    <path class="st27" d="M1289.92,464.58c5.84-.64,10.46-5.07,16.56-5.65,34.73-3.31,37.65,55.95-1.18,49.83-.34,5.42,5.78,5.07,9.31,10.85,15.6,25.58-18.9,51.49-39.1,33.31-4.46-4.02-4.49-8.22-6.72-12.12-3.38-5.9-4.72,5.55-7.62,9.27-18.2,23.32-60.69-3.24-40.12-32.42,2.77-3.92,6.11-3.68,7.41-6.96-40.29.79-33.69-58.83,2.45-51.43,4.61.94,8.01,5.55,12.93,5.32-14.84-46.77,60.94-46.78,46.1,0h-.02ZM1281.57,482.54c-16.53-15.73-47.65,6.6-31.11,28.22,17.63,23.05,53.02-7.38,31.11-28.22Z"/>
    <g>
      <path class="st35" d="M1308,364.22c2.23-.24,4.01-1.94,6.34-2.16,13.29-1.27,14.41,21.42-.45,19.07-.13,2.07,2.21,1.94,3.56,4.15,5.97,9.79-7.24,19.71-14.97,12.75-1.71-1.54-1.72-3.15-2.57-4.64-1.29-2.26-1.81,2.12-2.92,3.55-6.97,8.93-23.23-1.24-15.36-12.41,1.06-1.5,2.34-1.41,2.84-2.66-15.42.3-12.9-22.52.94-19.69,1.77.36,3.07,2.12,4.95,2.04-5.68-17.9,23.33-17.91,17.65,0h-.01ZM1304.81,371.09c-6.33-6.02-18.24,2.53-11.91,10.8,6.75,8.82,20.3-2.83,11.91-10.8Z"/>
      <path class="st24" d="M1308,364.22c2.23-.24,4.01-1.94,6.34-2.16,13.29-1.27,14.41,21.42-.45,19.07-.13,2.07,2.21,1.94,3.56,4.15,5.97,9.79-7.24,19.71-14.97,12.75-1.71-1.54-1.72-3.15-2.57-4.64-1.29-2.26-1.81,2.12-2.92,3.55-6.97,8.93-23.23-1.24-15.36-12.41,1.06-1.5,2.34-1.41,2.84-2.66-15.42.3-12.9-22.52.94-19.69,1.77.36,3.07,2.12,4.95,2.04-5.68-17.9,23.33-17.91,17.65,0h-.01ZM1304.81,371.09c-6.33-6.02-18.24,2.53-11.91,10.8,6.75,8.82,20.3-2.83,11.91-10.8Z"/>
    </g>
  </g>
</svg>